<svg xmlns="http://www.w3.org/2000/svg" viewBox="0 0 64 64">
  <defs>
    <linearGradient id="bg" x1="0" y1="0" x2="1" y2="1">
      <stop offset="0" stop-color="#1b2a6f"></stop>
      <stop offset="1" stop-color="#1aa7ff"></stop>
    </linearGradient>
    <linearGradient id="d" x1="0" y1="0" x2="0" y2="1">
      <stop offset="0" stop-color="#d9f2ff"></stop>
      <stop offset="1" stop-color="#79d2ff"></stop>
    </linearGradient>
  </defs>

  <!-- Background -->
  <rect x="2" y="2" width="60" height="60" rx="14" fill="url(#bg)"></rect>

  <!-- Subtle diagonal highlight -->
  <path d="M10 54 L54 10 L62 10 L62 18 L18 62 L10 62 Z" fill="#ffffff" opacity="0.08"></path>

  <!-- Hex badge (dotnet-ish) -->
  <path d="M22 10 L32 6 L42 10 L42 22 L32 28 L22 22 Z" fill="none" stroke="#ffffff" stroke-width="3" opacity="0.95"></path>

  <!-- Dot -->
  <circle cx="32" cy="16" r="3.3" fill="#ffffff"></circle>

  <!-- MD monogram (optimized for 16x16) -->
  <path d="M16 44 V30 H20 L26 38 L32 30 H36 V44 H32 V36.5 L26.5 43 H25.5 L20 36.5 V44 Z" fill="#ffffff"></path>
  <path d="M38 30 H46.5 C51 30 54 33.2 54 37.2 C54 41.3 51 44 46.5 44 H38 Z
           M42 33.5 V40.5 H46.2 C48.6 40.5 50 39.1 50 37.2 C50 35.2 48.6 33.5 46.2 33.5 Z" fill="url(#d)"></path>
</svg>
